<?xml version="1.0" encoding="utf-8"?>
<!-- Generator: Adobe Illustrator 16.0.2, SVG Export Plug-In . SVG Version: 6.00 Build 0)  -->
<!DOCTYPE svg PUBLIC "-//W3C//DTD SVG 1.1//EN" "http://www.w3.org/Graphics/SVG/1.1/DTD/svg11.dtd">
<svg version="1.1" id="Layer_1" xmlns="http://www.w3.org/2000/svg" xmlns:xlink="http://www.w3.org/1999/xlink" x="0px" y="0px"
	 width="16px" height="16px" viewBox="0 0 16 16" enable-background="new 0 0 16 16" xml:space="preserve">
<path fill="#1E61A9" d="M3.51,9.496c-1.403-0.846-3.131,0.22-3.47,0.572c0.388-0.339,1.47,0.921,1.47,0.921
	c3.486,4.021,8.471,2.841,9.713,2.565c1.244-0.273,4.762,1.29,4.762,1.29l-5.588-2.815c-1.752-0.839-1.752-0.986-2.149-1.63
	c0.569-3.46,3.782-3.484,4.493-3.536C9,5.48,7.876,8.744,7.53,9.263c1.013-5.46,8.281-8.726,8.281-8.726
	C7.043,2.042,3.871,8.528,3.51,9.496z"/>
</svg>
