<?xml version="1.0" standalone="no"?>
<!DOCTYPE svg PUBLIC "-//W3C//DTD SVG 20010904//EN"
 "http://www.w3.org/TR/2001/REC-SVG-20010904/DTD/svg10.dtd">
<svg version="1.0" xmlns="http://www.w3.org/2000/svg"
 width="96.000000pt" height="48.000000pt" viewBox="0 0 96.000000 48.000000"
 preserveAspectRatio="xMidYMid meet">

<g transform="translate(0.000000,48.000000) scale(0.100000,-0.100000)"
fill="#000000" stroke="none">
<path d="M364 398 c31 -27 39 -42 42 -74 3 -38 0 -42 -34 -62 l-37 -22 60 0
c48 0 68 5 98 26 38 25 41 44 8 44 -9 0 -27 13 -39 29 -27 37 -79 76 -112 86
-22 6 -20 2 14 -27z"/>
<path d="M370 340 c20 -13 33 -13 25 0 -3 6 -14 10 -23 10 -15 0 -15 -2 -2
-10z"/>
<path d="M44 306 c-29 -29 -34 -41 -34 -81 0 -40 5 -52 34 -81 29 -29 41 -34
82 -34 60 0 105 28 80 49 -11 9 -20 10 -35 2 -36 -20 -78 -13 -100 15 -27 34
-27 64 0 98 22 28 64 35 99 16 13 -7 21 -5 30 6 20 23 -15 43 -73 44 -43 0
-54 -5 -83 -34z"/>
<path d="M246 233 c-11 -11 -6 -23 9 -23 8 0 15 4 15 9 0 13 -16 22 -24 14z"/>
<path d="M490 170 c0 -47 3 -60 15 -60 9 0 15 9 15 25 0 20 5 25 25 25 14 0
25 5 25 10 0 6 -11 10 -25 10 -16 0 -25 6 -25 15 0 9 9 15 25 15 14 0 25 5 25
10 0 6 -18 10 -40 10 l-40 0 0 -60z"/>
<path d="M590 170 c0 -33 4 -60 10 -60 6 0 10 27 10 60 0 33 -4 60 -10 60 -6
0 -10 -27 -10 -60z"/>
<path d="M286 205 c-3 -8 -4 -21 -2 -27 3 -7 7 -25 10 -40 4 -19 13 -28 26
-28 11 0 20 5 20 10 0 6 -4 10 -10 10 -5 0 -10 11 -10 25 0 14 5 25 10 25 6 0
5 8 -2 20 -15 24 -34 26 -42 5z"/>
<path d="M247 193 c-11 -10 -8 -83 3 -83 6 0 10 20 10 45 0 46 -2 50 -13 38z"/>
<path d="M350 195 c0 -3 7 -22 15 -41 8 -20 12 -47 9 -60 -12 -47 14 -23 40
37 29 68 30 69 16 69 -5 0 -16 -12 -24 -27 l-14 -28 -11 28 c-9 23 -31 39 -31
22z"/>
<path d="M627 194 c-3 -4 2 -23 13 -43 12 -25 15 -42 9 -52 -12 -19 -11 -29 1
-29 10 0 60 102 60 121 0 19 -17 8 -29 -18 l-13 -28 -14 28 c-16 29 -17 30
-27 21z"/>
<path d="M738 189 c-22 -12 -23 -52 -4 -69 17 -13 63 -10 56 5 -3 5 -12 8 -22
7 -9 -2 -19 2 -23 8 -4 6 6 10 24 10 32 0 41 16 19 38 -14 14 -27 15 -50 1z
m37 -19 c3 -5 -1 -10 -9 -10 -9 0 -16 5 -16 10 0 6 4 10 9 10 6 0 13 -4 16
-10z"/>
<path d="M820 153 c0 -23 5 -43 10 -43 6 0 10 11 10 25 0 14 9 30 20 37 28 18
25 25 -10 25 -29 0 -30 -2 -30 -44z"/>
<path d="M897 194 c-13 -13 -7 -44 7 -44 8 0 18 -5 22 -11 4 -7 -2 -9 -14 -7
-12 2 -22 -1 -24 -7 -4 -15 54 -19 62 -4 11 16 1 39 -15 39 -8 0 -17 5 -21 11
-4 8 1 9 16 4 16 -5 21 -4 18 6 -5 15 -40 24 -51 13z"/>
</g>
</svg>
