<?xml version="1.0" encoding="utf-8"?>
<!-- Generator: Adobe Illustrator 16.0.2, SVG Export Plug-In . SVG Version: 6.00 Build 0)  -->
<!DOCTYPE svg PUBLIC "-//W3C//DTD SVG 1.1//EN" "http://www.w3.org/Graphics/SVG/1.1/DTD/svg11.dtd">
<svg version="1.1" id="Layer_1" xmlns="http://www.w3.org/2000/svg" xmlns:xlink="http://www.w3.org/1999/xlink" x="0px" y="0px"
	 width="90px" height="32px" viewBox="0 0 90 32" enable-background="new 0 0 90 32" xml:space="preserve">
<path fill="#0067FF" d="M27.575,0.282c0,0,8.645,3.884,9.851,10.381c-0.412-0.618-1.749-4.5-6.198-2.854
	c0.845,0.061,4.667,0.09,5.344,4.206c-0.472,0.765-0.472,0.941-2.557,1.94l-6.645,3.348c0,0,4.184-1.86,5.663-1.535
	c1.478,0.327,7.407,1.729,11.554-3.051c0,0,1.286-1.499,1.747-1.095c-0.404-0.42-2.458-1.688-4.126-0.681
	C41.777,9.788,38.005,2.074,27.575,0.282z"/>
<path fill="#0067FF" d="M20.14,24.811c-1.039,1.254-2.263,2.209-3.675,2.867c-1.412,0.656-2.989,0.984-4.733,0.984
	c-1.568,0-3.023-0.285-4.366-0.854c-1.343-0.569-2.503-1.343-3.484-2.322c-0.98-0.979-1.755-2.144-2.323-3.484
	s-0.852-2.789-0.852-4.336c0-1.548,0.284-2.994,0.852-4.338c0.568-1.342,1.343-2.503,2.323-3.484
	c0.98-0.979,2.141-1.753,3.484-2.322c1.343-0.568,2.798-0.853,4.366-0.853c1.685,0,3.17,0.294,4.454,0.882
	c1.284,0.588,2.426,1.441,3.425,2.558l-2.792,2.704c-0.628-0.725-1.348-1.303-2.161-1.734c-0.813-0.43-1.779-0.646-2.896-0.646
	c-0.98,0-1.901,0.171-2.765,0.515c-0.862,0.343-1.611,0.828-2.249,1.455C6.11,13.03,5.606,13.789,5.234,14.68
	c-0.372,0.893-0.559,1.886-0.559,2.984c0,1.1,0.187,2.094,0.559,2.984c0.373,0.893,0.876,1.649,1.514,2.276
	c0.637,0.63,1.387,1.113,2.249,1.457c0.862,0.345,1.784,0.515,2.765,0.515c1.177,0,2.22-0.24,3.131-0.722
	c0.912-0.479,1.72-1.159,2.425-2.043L20.14,24.811z"/>
<path fill="#0067FF" d="M23.305,19.111c-0.185,0-0.362-0.037-0.531-0.107c-0.168-0.07-0.316-0.168-0.44-0.295
	c-0.125-0.125-0.224-0.268-0.294-0.432c-0.072-0.164-0.106-0.344-0.106-0.539s0.035-0.377,0.106-0.541
	c0.07-0.162,0.168-0.307,0.294-0.432c0.125-0.125,0.272-0.224,0.44-0.296c0.169-0.072,0.346-0.107,0.531-0.107
	c0.381,0,0.708,0.134,0.98,0.403c0.272,0.266,0.409,0.59,0.409,0.971s-0.136,0.705-0.409,0.973
	C24.013,18.975,23.687,19.111,23.305,19.111z M22.243,28.191v-8.004h2.14v8.004H22.243z"/>
<path fill="#0067FF" d="M27.144,22.018h-1.405v-1.83h1.405v-2.448h2.14v2.448h1.96v1.83h-1.96v3.197c0,0.191,0.02,0.367,0.057,0.529
	c0.038,0.164,0.111,0.301,0.221,0.414c0.152,0.178,0.37,0.266,0.653,0.266c0.185,0,0.332-0.018,0.441-0.055
	c0.108-0.037,0.212-0.09,0.31-0.156l0.604,1.877c-0.25,0.121-0.52,0.211-0.808,0.271c-0.289,0.057-0.607,0.088-0.956,0.088
	c-0.402,0-0.765-0.064-1.086-0.191c-0.322-0.127-0.592-0.303-0.809-0.525c-0.512-0.5-0.768-1.211-0.768-2.135L27.144,22.018
	L27.144,22.018z"/>
<path fill="#0067FF" d="M35.409,27.801l-3.365-7.613h2.434l2.025,4.853h0.115l1.944-4.853h2.385l-5.015,11.531h-2.304L35.409,27.801
	z"/>
<path fill="#0067FF" d="M45.779,16.496h7.416v2.092h-5.211v2.842h4.688v2.09h-4.688v4.672h-2.205V16.496z"/>
<path fill="#0067FF" d="M54.635,28.191V16.496h2.139v11.695H54.635z"/>
<path fill="#0067FF" d="M61.119,27.801l-3.365-7.613h2.434l2.025,4.853h0.115l1.943-4.853h2.387l-5.016,11.531H59.34L61.119,27.801z
	"/>
<path fill="#0067FF" d="M74.887,26.264c-0.369,0.654-0.867,1.182-1.492,1.586c-0.627,0.402-1.395,0.605-2.297,0.605
	c-0.609,0-1.172-0.107-1.688-0.32s-0.968-0.508-1.351-0.889c-0.381-0.383-0.678-0.832-0.889-1.35
	c-0.213-0.517-0.318-1.086-0.318-1.707c0-0.578,0.104-1.123,0.31-1.642c0.209-0.518,0.498-0.969,0.866-1.354
	c0.369-0.387,0.81-0.695,1.314-0.924c0.506-0.229,1.064-0.345,1.676-0.345c0.644,0,1.215,0.105,1.715,0.318s0.922,0.506,1.256,0.881
	c0.341,0.377,0.595,0.821,0.771,1.334c0.175,0.51,0.261,1.065,0.261,1.666c0,0.074,0,0.142,0,0.194
	c-0.013,0.066-0.017,0.123-0.017,0.181c-0.012,0.056-0.019,0.115-0.019,0.181h-6.026c0.043,0.325,0.133,0.606,0.271,0.84
	c0.137,0.233,0.305,0.43,0.506,0.59c0.201,0.158,0.42,0.271,0.66,0.342c0.239,0.07,0.485,0.107,0.735,0.107
	c0.49,0,0.896-0.111,1.216-0.336c0.321-0.222,0.575-0.505,0.76-0.841L74.887,26.264z M72.943,23.162
	c-0.012-0.143-0.057-0.301-0.137-0.475c-0.082-0.174-0.203-0.338-0.359-0.49c-0.16-0.152-0.355-0.277-0.59-0.377
	c-0.234-0.098-0.515-0.146-0.84-0.146c-0.457,0-0.861,0.131-1.209,0.393c-0.349,0.263-0.593,0.627-0.734,1.097L72.943,23.162
	L72.943,23.162z"/>
<path fill="#0067FF" d="M76.393,20.188H78.4v1.111h0.131c0.098-0.197,0.229-0.377,0.393-0.539c0.164-0.164,0.346-0.307,0.547-0.428
	s0.42-0.219,0.652-0.293c0.234-0.076,0.467-0.113,0.695-0.113c0.283,0,0.524,0.029,0.727,0.09c0.203,0.062,0.373,0.14,0.514,0.236
	l-0.57,1.912c-0.131-0.066-0.274-0.117-0.434-0.156c-0.158-0.037-0.352-0.057-0.58-0.057c-0.293,0-0.561,0.057-0.801,0.172
	s-0.443,0.275-0.611,0.484c-0.17,0.209-0.301,0.449-0.395,0.729c-0.09,0.279-0.137,0.584-0.137,0.912v3.94h-2.141L76.393,20.188z"/>
<path fill="#0067FF" d="M85.883,28.455c-0.523,0-0.988-0.066-1.396-0.197c-0.407-0.131-0.762-0.303-1.063-0.516
	c-0.301-0.211-0.553-0.457-0.76-0.734s-0.365-0.557-0.475-0.84l1.914-0.818c0.182,0.414,0.432,0.724,0.742,0.924
	c0.309,0.203,0.653,0.304,1.036,0.304c0.392,0,0.701-0.072,0.929-0.213c0.231-0.142,0.346-0.31,0.346-0.507
	c0-0.217-0.096-0.395-0.285-0.53c-0.191-0.136-0.521-0.261-0.988-0.367l-1.127-0.244c-0.252-0.057-0.508-0.143-0.777-0.262
	c-0.268-0.119-0.51-0.271-0.727-0.457c-0.219-0.187-0.398-0.408-0.539-0.67C82.57,23.064,82.5,22.76,82.5,22.41
	c0-0.391,0.082-0.738,0.254-1.045c0.166-0.305,0.4-0.563,0.693-0.777c0.295-0.213,0.639-0.375,1.037-0.49
	c0.396-0.115,0.824-0.17,1.281-0.17c0.762,0,1.442,0.15,2.041,0.451c0.6,0.299,1.041,0.775,1.323,1.428l-1.846,0.752
	c-0.152-0.315-0.377-0.545-0.671-0.688c-0.295-0.141-0.588-0.211-0.883-0.211c-0.305,0-0.569,0.063-0.799,0.188
	c-0.229,0.125-0.346,0.285-0.346,0.482c0,0.186,0.096,0.332,0.287,0.439c0.191,0.11,0.449,0.209,0.777,0.295l1.225,0.295
	c0.816,0.195,1.424,0.51,1.822,0.938c0.396,0.432,0.594,0.941,0.594,1.529c0,0.35-0.082,0.68-0.244,0.996
	c-0.164,0.316-0.396,0.596-0.695,0.84c-0.297,0.246-0.656,0.441-1.076,0.582C86.857,28.383,86.393,28.455,85.883,28.455z"/>
</svg>
