<?xml version="1.0" encoding="utf-8"?>
<!-- Generator: Adobe Illustrator 16.0.0, SVG Export Plug-In . SVG Version: 6.00 Build 0)  -->
<!DOCTYPE svg PUBLIC "-//W3C//DTD SVG 1.1//EN" "http://www.w3.org/Graphics/SVG/1.1/DTD/svg11.dtd">
<svg version="1.1" id="Layer_1" xmlns="http://www.w3.org/2000/svg" xmlns:xlink="http://www.w3.org/1999/xlink" x="0px" y="0px"
	 width="16px" height="16px" viewBox="0 0 16 16" enable-background="new 0 0 16 16" xml:space="preserve">
<path fill="#0067FF" d="M0.228,0.698c0,0,7.243,3.254,8.253,8.698c-0.346-0.519-1.465-3.77-5.192-2.391
	c0.708,0.051,3.911,0.075,4.477,3.524c-0.395,0.641-0.395,0.789-2.142,1.625l-5.567,2.805c0,0,3.505-1.559,4.744-1.285
	c1.238,0.273,6.206,1.447,9.68-2.557c0,0,1.078-1.256,1.464-0.918c-0.339-0.352-2.06-1.415-3.458-0.57
	C12.127,8.662,8.966,2.2,0.228,0.698z"/>
</svg>
